<?xml version="1.0" standalone="no"?>
<!DOCTYPE svg PUBLIC "-//W3C//DTD SVG 20010904//EN"
 "http://www.w3.org/TR/2001/REC-SVG-20010904/DTD/svg10.dtd">
<svg version="1.0" xmlns="http://www.w3.org/2000/svg"
 width="1875.000000pt" height="1875.000000pt" viewBox="0 0 1875.000000 1875.000000"
 preserveAspectRatio="xMidYMid meet">
<g transform="translate(0.000000,1875.000000) scale(0.100000,-0.100000)"
fill="#000000" stroke="none">
<path d="M16015 14902 c-1973 -1773 -11174 -10055 -11460 -10317 l-219 -200
4469 -3 c2458 -1 4472 1 4476 5 4 5 134 400 289 878 155 479 346 1068 425
1310 212 648 297 917 291 922 -7 7 -161 -141 -863 -834 l-662 -653 -2032 0
c-1809 0 -2031 2 -2025 15 3 8 144 181 314 383 713 850 1641 1956 2102 2507
272 325 832 993 1245 1485 861 1027 985 1174 2489 2970 1732 2067 1600 1909
1595 1914 -2 2 -197 -170 -434 -382z"/>
<path d="M5535 14371 l-80 -6 -103 -310 c-110 -331 -818 -2510 -872 -2683 -18
-57 -30 -106 -27 -108 5 -6 233 215 978 948 l537 528 1988 -1 c1094 0 2009 -4
2032 -7 l44 -7 -69 -80 c-60 -69 -681 -810 -2662 -3175 -256 -305 -756 -901
-1111 -1325 -355 -423 -773 -923 -930 -1110 -259 -310 -1655 -1977 -2479
-2960 -184 -220 -366 -437 -404 -483 -39 -45 -67 -85 -64 -88 4 -5 2827 2531
7882 7081 825 742 2081 1871 2790 2509 1412 1268 1409 1266 1400 1275 -8 8
-8740 10 -8850 2z"/>
</g>
</svg>
